<svg width="65" height="60" viewBox="0 0 65 60" fill="none" xmlns="http://www.w3.org/2000/svg">
<path fill-rule="evenodd" clip-rule="evenodd" d="M17.0492 27.5044C18.5292 27.5044 19.729 28.6016 19.729 29.955C19.729 36.4516 25.4878 41.7182 32.5917 41.7182C39.6956 41.7182 45.4545 36.4516 45.4545 29.955C45.4545 28.6016 46.6542 27.5044 48.1342 27.5044C49.6142 27.5044 50.8139 28.6016 50.8139 29.955C50.8139 39.1585 42.6556 46.6195 32.5917 46.6195C22.5279 46.6195 14.3695 39.1585 14.3695 29.955C14.3695 28.6016 15.5693 27.5044 17.0492 27.5044Z" fill="white"/>
<path fill-rule="evenodd" clip-rule="evenodd" d="M30.0941 0.547143H35.0893C41.3254 0.547089 46.2784 0.547045 50.1577 1.02402C54.1556 1.51557 57.4121 2.55378 59.9832 4.90509C62.5543 7.2564 63.6896 10.2345 64.2271 13.8906C64.7486 17.4383 64.7486 21.9678 64.7485 27.6708V32.2391C64.7486 37.9421 64.7486 42.4716 64.2271 46.0193C63.6896 49.6755 62.5543 52.6536 59.9832 55.0049C57.4121 57.3562 54.1556 58.3944 50.1577 58.8859C46.2784 59.3629 41.3255 59.3629 35.0893 59.3628H30.094C23.8579 59.3629 18.905 59.3629 15.0257 58.8859C11.0277 58.3944 7.77125 57.3562 5.20014 55.0049C2.62903 52.6536 1.49378 49.6755 0.956269 46.0193C0.434709 42.4716 0.434756 37.9421 0.434816 32.2391V27.6709C0.434756 21.9679 0.434709 17.4383 0.956269 13.8906C1.49378 10.2345 2.62903 7.2564 5.20014 4.90509C7.77125 2.55378 11.0277 1.51557 15.0257 1.02402C18.905 0.547045 23.8579 0.547089 30.0941 0.547143ZM15.7398 5.88162C12.3362 6.3001 10.3992 7.08198 8.98986 8.37084C7.58052 9.6597 6.72556 11.4311 6.26795 14.5437C5.79998 17.7269 5.79429 21.9264 5.79429 27.8544V32.0555C5.79429 37.9836 5.79998 42.1831 6.26795 45.3662C6.72556 48.4789 7.58052 50.2503 8.98986 51.5391C10.3992 52.828 12.3362 53.6099 15.7398 54.0283C19.2205 54.4563 23.8126 54.4615 30.2948 54.4615H34.8886C41.3708 54.4615 45.9629 54.4563 49.4436 54.0283C52.8472 53.6099 54.7842 52.828 56.1935 51.5391C57.6028 50.2503 58.4578 48.4789 58.9154 45.3662C59.3834 42.1831 59.3891 37.9836 59.3891 32.0555V27.8544C59.3891 21.9264 59.3834 17.7269 58.9154 14.5437C58.4578 11.4311 57.6028 9.6597 56.1935 8.37084C54.7842 7.08198 52.8472 6.3001 49.4436 5.88162C45.9629 5.45365 41.3708 5.44845 34.8886 5.44845H30.2948C23.8126 5.44845 19.2205 5.45365 15.7398 5.88162Z" fill="white"/>
</svg>
