<svg width="33" height="36" viewBox="0 0 33 36" fill="none" xmlns="http://www.w3.org/2000/svg">
<g filter="url(#filter0_d_3_63)">
<path d="M28.1159 6.45848L16.3761 2.55441V29.4103L27.9985 20.714C28.5032 20.3364 28.8003 19.743 28.8003 19.1126V7.40739C28.8003 6.9767 28.5246 6.59439 28.1159 6.45848Z" stroke="white" stroke-width="1.3" stroke-linejoin="round"/>
</g>
<g filter="url(#filter1_d_3_63)">
<path d="M4.6363 6.45848L16.3761 2.55441V29.4103L4.75366 20.714C4.24899 20.3364 3.95186 19.743 3.95186 19.1126V7.40739C3.95186 6.9767 4.22761 6.59439 4.6363 6.45848Z" fill="white"/>
<path d="M4.6363 6.45848L16.3761 2.55441V29.4103L4.75366 20.714C4.24899 20.3364 3.95186 19.743 3.95186 19.1126V7.40739C3.95186 6.9767 4.22761 6.59439 4.6363 6.45848Z" stroke="white" stroke-width="1.3" stroke-linejoin="round"/>
</g>
<defs>
<filter id="filter0_d_3_63" x="12.7261" y="0.904419" width="19.7242" height="34.1559" filterUnits="userSpaceOnUse" color-interpolation-filters="sRGB">
<feFlood flood-opacity="0" result="BackgroundImageFix"/>
<feColorMatrix in="SourceAlpha" type="matrix" values="0 0 0 0 0 0 0 0 0 0 0 0 0 0 0 0 0 0 127 0" result="hardAlpha"/>
<feOffset dy="2"/>
<feGaussianBlur stdDeviation="1.5"/>
<feColorMatrix type="matrix" values="0 0 0 0 0 0 0 0 0 0 0 0 0 0 0 0 0 0 0.25 0"/>
<feBlend mode="normal" in2="BackgroundImageFix" result="effect1_dropShadow_3_63"/>
<feBlend mode="normal" in="SourceGraphic" in2="effect1_dropShadow_3_63" result="shape"/>
</filter>
<filter id="filter1_d_3_63" x="0.30188" y="0.904419" width="19.7242" height="34.1559" filterUnits="userSpaceOnUse" color-interpolation-filters="sRGB">
<feFlood flood-opacity="0" result="BackgroundImageFix"/>
<feColorMatrix in="SourceAlpha" type="matrix" values="0 0 0 0 0 0 0 0 0 0 0 0 0 0 0 0 0 0 127 0" result="hardAlpha"/>
<feOffset dy="2"/>
<feGaussianBlur stdDeviation="1.5"/>
<feColorMatrix type="matrix" values="0 0 0 0 0 0 0 0 0 0 0 0 0 0 0 0 0 0 0.25 0"/>
<feBlend mode="normal" in2="BackgroundImageFix" result="effect1_dropShadow_3_63"/>
<feBlend mode="normal" in="SourceGraphic" in2="effect1_dropShadow_3_63" result="shape"/>
</filter>
</defs>
</svg>
