<svg width="74" height="67" viewBox="0 0 74 67" fill="none" xmlns="http://www.w3.org/2000/svg">
<path d="M32.3863 61.4273C32.1325 60.5314 32.0486 59.6337 31.8306 58.734C31.4411 57.1261 30.991 55.5087 30.7685 53.8727C30.6467 52.9771 30.4754 52.0481 30.2437 51.1719C30.18 50.9311 30.204 50.542 30.0553 50.3342C29.9169 50.141 29.4746 50.0453 29.2564 49.9429C28.5646 49.6175 27.8651 49.3057 27.1732 48.9814C25.992 48.4278 24.6305 47.8123 23.6553 46.975C23.2671 46.6418 23.0265 46.1435 22.7539 45.7368C22.5559 45.4415 22.2766 45.17 22.1254 44.8522L22.0157 44.879C21.8695 44.4321 21.5168 44.0959 21.2686 43.7011C20.6763 42.7593 20.0158 41.7786 19.4995 40.8006C19.0571 39.9625 18.6585 39.002 18.4622 38.0854C18.3882 37.7401 18.4167 37.3841 18.3479 37.0389C18.6032 37.0298 18.7664 37.1538 18.9941 37.2341C19.4571 37.3974 19.9027 37.6019 20.3653 37.7759C21.9765 38.3822 23.5588 39.062 25.1838 39.652C25.6007 39.8034 26.0101 39.9774 26.4229 40.1384C26.5789 40.1994 26.813 40.3387 26.9865 40.3244C27.1466 40.3114 27.2656 40.1003 27.3614 40.0001L28.2316 39.0939C29.3431 37.9322 30.4267 36.6189 31.7128 35.6039C31.9985 35.3784 32.4426 35.2623 32.7913 35.1411C33.3603 34.9434 33.9227 34.7205 34.4863 34.5103C35.51 34.1285 36.5125 33.6761 37.541 33.3074C38.4689 32.9748 39.4495 32.7207 40.3481 32.3284L40.3579 32.3618C39.9263 32.6024 39.5809 33.0476 39.2497 33.3915C38.5782 34.0884 37.9181 34.7978 37.3833 35.5878C35.6207 38.1901 33.9548 40.7941 33.6905 43.9164C33.5994 44.9939 33.652 46.0984 33.9588 47.1457C34.0225 47.3629 34.0845 47.9902 34.304 48.1094C34.5051 48.2188 34.9334 48.1772 35.1634 48.1828C35.8899 48.2007 36.686 48.054 37.365 47.8106C37.7043 47.6891 37.9925 47.5182 38.3502 47.4305L38.7655 53.7397L38.9118 57.0346L39.0208 58.942L39.1666 58.0825L39.3943 55.6629L40.2167 48.6207L40.4605 46.3404L40.5288 45.6432C39.4207 45.7736 38.2591 45.8369 37.1692 46.0728C36.8643 46.1389 36.0356 46.2679 35.7914 46.0451C35.4899 45.7702 35.6057 45.0151 35.5005 44.6548L35.6101 44.6279C35.4645 43.4835 35.7998 42.2259 36.135 41.1327C37.0692 38.0858 39.0765 35.3774 41.3334 33.0181C42.259 32.0508 43.2394 30.9914 44.4007 30.2541C45.1417 29.7837 46.0244 29.4347 46.8371 29.0805C47.2277 28.9101 47.593 28.6705 48.0055 28.5226C48.6605 28.2878 49.3703 28.1294 49.9917 27.8164L49.982 27.783C49.2673 27.8902 48.5147 28.0055 47.7882 28.0483C47.5307 28.0635 47.2292 28.1292 46.9754 28.0758C46.5472 27.9858 45.9436 27.5147 45.805 27.1232C45.7009 26.8294 45.8121 26.4459 45.8439 26.1467C45.9263 25.3625 46.1667 24.5564 46.1827 23.7715C45.8457 24.0302 45.6764 24.5071 45.4392 24.843C44.7956 25.754 44.0538 26.7791 42.9926 27.3195C42.6651 27.4863 42.2809 27.4928 41.9225 27.5436C41.231 27.6414 40.5179 27.6778 39.8193 27.7168C39.5454 27.7321 39.2712 27.6759 38.997 27.717L38.9676 27.6168C38.0789 27.6912 37.046 27.4702 36.1746 27.3072C35.9335 27.2621 35.4389 27.2747 35.2584 27.1221C35.1181 27.0036 35.0609 26.7782 34.978 26.6246C34.7508 26.204 34.5775 25.7669 34.3542 25.3448C34.1384 24.9371 33.9837 24.5077 33.8555 24.0702C33.8038 23.8936 33.7045 23.6888 33.8198 23.5168C33.987 23.2675 34.4705 23.0897 34.7379 22.9382C35.5713 22.4664 36.4201 22.0112 37.2737 21.568C39.6408 20.3387 41.96 19.0153 44.2967 17.7358C44.9822 17.3604 45.6657 16.9827 46.3577 16.6163C46.7171 16.426 47.0913 16.201 47.5133 16.1495C48.1909 16.0668 49.0396 16.0244 49.6459 16.372C50.1261 16.6475 50.486 17.4093 50.7978 17.8414C51.5996 18.9539 52.4502 20.0379 53.2641 21.1409C54.6713 23.0473 56.0883 24.9335 57.3935 26.898C57.661 27.3001 57.912 27.7532 58.2204 28.128C58.4444 28.4009 58.8228 28.7566 58.8154 29.1283C58.8083 29.4851 58.4475 29.9298 58.258 30.2319C57.7824 30.9895 57.3275 31.7546 56.8501 32.5109C55.6397 34.4281 54.3794 36.3153 53.1469 38.2161C52.7418 38.8412 52.4154 39.5182 51.9831 40.132C51.4916 40.8297 51.0941 41.5915 50.5831 42.2776C50.3499 42.5908 50.1637 42.8911 49.9625 43.2241C49.8646 43.386 49.6932 43.5709 49.6739 43.7604C49.6375 44.1253 49.997 44.4742 50.11 44.7996C50.4595 45.8053 50.8477 46.8014 51.3218 47.7618C51.5124 48.1478 51.6106 48.5793 51.7728 48.9765C52.1675 49.9438 52.626 50.8898 53.0337 51.8551C53.2596 52.3907 53.4091 52.9611 53.6429 53.4933C53.93 54.1468 54.1737 54.8223 54.4621 55.4805C54.6495 55.9074 54.8891 56.2935 55.0201 56.7406C55.7832 56.4071 56.4356 55.8536 57.0827 55.3595C58.606 54.1961 59.8977 52.8893 61.1399 51.4897C67.6952 44.1053 69.5168 33.8431 65.9183 24.9524C65.3634 23.5811 64.8258 22.2622 64.052 20.9686C59.1145 12.7128 49.5788 7.29704 39.3117 6.73658C35.6772 6.53813 31.9232 7.02394 28.4496 8.02595C17.7875 11.1018 9.3793 19.8871 7.78843 30.0996C7.41896 32.4712 7.3637 34.921 7.62863 37.3018C7.84103 39.2106 8.42948 41.0754 9.0579 42.8969C11.4525 49.8377 16.9856 55.7649 24.1666 58.9531C26.2175 59.8638 28.3824 60.7462 30.647 61.1167C31.2088 61.2087 31.8059 61.4728 32.3863 61.4273V61.4273Z" fill="#010101"/>
<path d="M45.9163 15.7785C45.7135 15.2694 45.0968 14.7713 44.7243 14.3515C43.8146 13.3263 42.9641 12.2549 41.9909 11.2965C41.6883 10.9987 41.383 10.696 41.1011 10.3822C40.9844 10.2524 40.9013 10.052 40.6939 10.0242C40.2973 9.97127 39.8055 10.3898 39.4935 10.5668C38.5962 11.0758 37.6633 11.5638 36.7596 12.0616C35.9193 12.5244 35.1673 13.0214 34.3742 13.5438C34.125 13.7079 33.5743 13.9684 33.4862 14.2517C33.4076 14.5035 33.7703 14.819 33.9248 14.9922C34.4524 15.5818 35.0496 16.1216 35.5808 16.7009C36.2012 17.3775 36.9807 17.9396 37.563 18.6492C37.7689 18.8999 37.9921 19.1177 38.2281 19.3458C38.3155 19.4302 38.4285 19.5901 38.5583 19.6188C38.7338 19.6574 39.0269 19.4335 39.1707 19.3551C39.6784 19.0786 40.2042 18.8361 40.6909 18.5286C41.3892 18.0875 42.1967 17.7773 42.9415 17.3879C43.9427 16.8645 44.9184 16.2862 45.9163 15.7785V15.7785Z" fill="#FFE86E"/>
<path d="M33.352 26.6292L33.3885 26.6202C33.127 25.8597 32.7207 25.1416 32.4937 24.3683C32.4107 24.0855 32.2643 23.7337 32.3441 23.438C32.4583 23.0153 33.181 22.7195 33.5531 22.5038C34.7373 21.8176 35.9462 20.9862 37.2207 20.4522L37.301 20.3251C36.8383 19.723 36.2094 19.1993 35.6793 18.6452C35.0194 17.9554 34.4111 17.2077 33.7636 16.5001C33.4679 16.1768 33.1722 15.8532 32.8657 15.5382C32.7495 15.4183 32.6002 15.2229 32.4223 15.1823C32.2552 15.1443 32.0284 15.2419 31.8677 15.2813C31.3356 15.412 30.8533 15.6224 30.4016 15.9031C29.0721 16.7293 27.8565 17.5201 26.8348 18.6879C26.54 19.0248 26.2183 19.3432 25.9576 19.704C25.8676 19.8286 25.6927 19.9924 25.7222 20.1539C25.7668 20.3985 26.071 20.6798 26.2535 20.8474C26.7211 21.277 27.1951 21.7058 27.6928 22.1064C29.5678 23.6159 31.4723 25.1091 33.352 26.6292V26.6292Z" fill="#FFE86E"/>
<path d="M37.2406 32.0157C37.0482 31.6716 36.6913 31.5149 36.4218 31.2474C35.7831 30.6136 35.1421 29.9993 34.467 29.3943C32.3283 27.4777 30.2014 25.5594 27.9832 23.7187C27.2456 23.1066 26.5012 22.5031 25.7527 21.9015C25.49 21.6903 25.0907 21.2542 24.7442 21.1826C24.1885 21.0679 23.5415 21.7086 23.1352 21.9679C21.9643 22.7153 21.0031 23.7855 20.2619 24.8973C19.9808 25.319 19.6473 25.8271 19.5556 26.3211C19.4621 26.8248 19.7301 26.9651 20.0481 27.3121C20.4993 27.8046 21.0129 28.227 21.5268 28.6674C23.4794 30.3413 25.7014 31.6769 27.7833 33.1871C28.3966 33.632 29.0098 34.0856 29.717 34.4068C29.9144 34.4965 30.1739 34.7191 30.3995 34.7194C31.0596 34.72 31.7426 34.3125 32.3256 34.0872C33.4649 33.6468 34.6001 33.2093 35.7248 32.7233C36.2329 32.5038 36.7122 32.1914 37.2406 32.0157V32.0157Z" fill="#FFE86E"/>
<path d="M18.524 28.4186C17.7758 28.7678 17.254 29.5206 16.7943 30.134C16.2806 30.8194 15.8852 31.546 15.5479 32.3163C15.3489 32.7709 15.1665 33.2379 15.3426 33.7281C15.5623 34.3395 16.5631 34.6835 17.1166 34.9767C18.766 35.8505 20.4367 36.5854 22.1517 37.335C23.2459 37.8132 24.3395 38.2766 25.4548 38.7072C25.8888 38.8745 26.3942 39.1679 26.8563 38.9461C27.7825 38.5021 28.5708 37.5203 29.1521 36.7516C29.3246 36.5236 29.7082 36.084 29.5976 35.7863C29.5226 35.5844 29.338 35.515 29.1768 35.3866C28.7431 35.0413 28.2732 34.7504 27.825 34.4268C26.0981 33.1797 24.3943 31.8953 22.6572 30.6464C21.7845 30.0188 20.9128 29.3986 20.0272 28.7838C19.5438 28.4483 19.1286 28.1364 18.524 28.4186Z" fill="#FFE86E"/>
</svg>
